<?xml version="1.0" standalone="no"?><!DOCTYPE svg PUBLIC "-//W3C//DTD SVG 1.1//EN" "http://www.w3.org/Graphics/SVG/1.1/DTD/svg11.dtd"><svg t="1528970033960" class="icon" style="" viewBox="0 0 1024 1024" version="1.1" xmlns="http://www.w3.org/2000/svg" p-id="2993" xmlns:xlink="http://www.w3.org/1999/xlink" width="200" height="200"><defs><style type="text/css"></style></defs><path d="M896 170.666667v507.733333H128V170.666667h768m85.333333-85.333334H42.666667v678.4h938.666666V85.333333zM213.333333 853.333333h597.333334v85.333334H213.333333z" p-id="2994"></path><path d="M213.333333 296.533333h85.333334v344.106667h-85.333334zM381.866667 213.333333h85.333333v424.106667h-85.333333zM554.666667 339.2h85.333333v296.96h-85.333333zM725.333333 386.133333h85.333334v251.52h-85.333334z" p-id="2995"></path><path d="M42.666667 85.333333v678.4h938.666666V85.333333z m853.333333 593.066667H128V170.666667h768zM213.333333 853.333333h597.333334v85.333334H213.333333z" p-id="2996"></path><path d="M213.333333 296.533333h85.333334v344.106667h-85.333334zM381.866667 213.333333h85.333333v424.106667h-85.333333zM554.666667 339.2h85.333333v296.96h-85.333333zM725.333333 386.133333h85.333334v251.52h-85.333334z" p-id="2997"></path></svg>